<?xml version="1.0" encoding="utf-8"?>
<!-- Svg Vector Icons : http://www.onlinewebfonts.com/icon -->
<!DOCTYPE svg PUBLIC "-//W3C//DTD SVG 1.1//EN" "http://www.w3.org/Graphics/SVG/1.1/DTD/svg11.dtd">
<svg version="1.1" xmlns="http://www.w3.org/2000/svg" xmlns:xlink="http://www.w3.org/1999/xlink" x="0px" y="0px" viewBox="0 0 1000 1000" enable-background="new 0 0 1000 1000" xml:space="preserve">
<metadata> Svg Vector Icons : http://www.onlinewebfonts.com/icon </metadata>
<g><path d="M983.5,230.2c-7-10.4-18.8-16.6-31.3-16.6c0,0-0.1,0-0.1,0l-745.3,1.7L144.8,27.2c-5.1-15.5-19.6-26-36-26h-61C26.9,1.2,10,18.2,10,39s16.9,37.9,37.9,37.9h33.6l61.7,187.3c0.2,0.6,0.4,1.1,0.6,1.7l94.5,286.9L120.7,771.9c-6.3,11.7-6,25.9,0.9,37.3c6.8,11.4,19.2,18.4,32.5,18.4h665.6c20.9,0,37.9-17,37.9-37.9S840.6,752,819.7,752H217.3l84.6-157.7h528.3c15.5,0,29.4-9.4,35.1-23.8l122-304.9C992,253.9,990.5,240.6,983.5,230.2z M804.5,518.5h-498l-74.9-227.6l664.5-1.5L804.5,518.5z"/><path d="M247.9,897.9c-27.9,0-50.5,22.6-50.5,50.5c0,27.9,22.6,50.5,50.5,50.5s50.5-22.6,50.5-50.5C298.4,920.5,275.8,897.9,247.9,897.9z"/><path d="M708.5,897.9c-27.9,0-50.5,22.6-50.5,50.5c0,27.9,22.6,50.5,50.5,50.5c27.9,0,50.5-22.6,50.5-50.5C758.9,920.5,736.3,897.9,708.5,897.9z"/></g>
</svg>