<?xml version="1.0" encoding="utf-8"?>
<!-- Svg Vector Icons : http://www.onlinewebfonts.com/icon -->
<!DOCTYPE svg PUBLIC "-//W3C//DTD SVG 1.1//EN" "http://www.w3.org/Graphics/SVG/1.1/DTD/svg11.dtd">
<svg version="1.1" xmlns="http://www.w3.org/2000/svg" xmlns:xlink="http://www.w3.org/1999/xlink" x="0px" y="0px" viewBox="0 0 1000 1000" enable-background="new 0 0 1000 1000" xml:space="preserve">
<metadata> Svg Vector Icons : http://www.onlinewebfonts.com/icon </metadata>
<g><path d="M503.6,68.8c34.5,0,63.2,7.2,85.3,21.4c16.9,10.9,30.8,26.4,41.3,46.2c19.6,37.1,21,76.6,21.1,79.7c-0.1,5.1-1.3,72.8-23.5,137.9c-12.1,35.5-27.9,63-47,81.7c-10,9.8-20.7,17.1-32.5,22.1c-13.3,5.6-27.9,8.4-44.6,8.4c-16.7,0-31.3-2.7-44.6-8.4c-11.9-5-22.5-12.2-32.6-22.1c-19.1-18.7-34.9-46.2-47-81.7c-22.7-66.4-23.5-135.5-23.5-138.1c0-1.4,1.1-39.7,19.6-76.6c10.3-20.6,24.2-36.8,41.3-48.2C439.1,76.3,468.3,68.8,503.6,68.8 M500,628.2c81.9,0,151.3,11.4,206.1,33.8c43.7,17.9,78.6,43.2,103.9,75.1c17.3,21.9,30.5,47.4,39.3,76c7.4,23.8,11.7,49.9,12.9,77.4c0.7,14.9,0.3,28.8-0.5,40.7H138.2c-0.7-11-1.1-23.5-0.6-37.2c1-27.9,5.1-54.4,12.4-78.6c8.7-29.2,22-55.3,39.5-77.6c25.2-32.1,60.1-57.5,103.8-75.5C348.2,639.6,417.7,628.2,500,628.2 M503.6,10c-206.5,0-206.5,205.9-206.5,205.9s0,309,206.5,309c206.4,0,206.5-309,206.5-309S710,10,503.6,10L503.6,10z M500,569.4C-16.2,569.4,87,990,87,990h826C913,990,1016.2,569.4,500,569.4L500,569.4z"/></g>
</svg>